# xmcd
#
# Track frame offsets: 
#        150
#        19484
#        31672
#        63568
#        75803
#        85957
#        103339
#        119388
#        134561
#        147886
#        160823
#        171055
#        187336
#        210181
#        232385
#
# Disc length: 3364 seconds
#
# Revision: 0
# Processed by: cddbd v1.4PL0 Copyright (c) Steve Scherf et al.
# Submitted via: ExactAudioCopy v0.90b4
#
DISCID=d10d220f
DTITLE=Steve Copeland and Raging Sun - More Than Ready
DYEAR=2001
DGENRE=Rock and Roll
TTITLE0=Everybody Gets The Blues
TTITLE1=Swing Time
TTITLE2=Don't Tell Me Why
TTITLE3=She's In The Groove
TTITLE4=Face To Face
TTITLE5=Up Jumped The Money Man
TTITLE6=Cuddle Up
TTITLE7=Memphis Deluxe
TTITLE8=Raging Soul
TTITLE9=Gray Skies
TTITLE10=Blues Stew
TTITLE11=Drive My Blues Away
TTITLE12=Best Days
TTITLE13=Don't Look Back
TTITLE14=Thank God I Got The Blues
EXTD=
EXTT0=
EXTT1=
EXTT2=
EXTT3=
EXTT4=
EXTT5=
EXTT6=
EXTT7=
EXTT8=
EXTT9=
EXTT10=
EXTT11=
EXTT12=
EXTT13=
EXTT14=
PLAYORDER=
